<svg xmlns="http://www.w3.org/2000/svg" viewBox="0 0 151.9 122.07"><defs><style>.cls-1{fill:#4d4e4c;}.cls-2{fill:#00c2b4;}.cls-2,.cls-3,.cls-4,.cls-5,.cls-6{stroke:#fff;stroke-linejoin:round;stroke-width:2.13px;}.cls-3{fill:#9dd288;}.cls-4{fill:#ffe153;}.cls-5{fill:#ffa259;}.cls-6{fill:#ffb57a;}</style></defs><title>Recurso 1</title><g id="Capa_2" data-name="Capa 2"><g id="OBJECTS"><path class="cls-1" d="M5.27,46.7H146.63c2.9,0,5.27,1.74,5.27,3.86v63.17c0,2.12-2.37,3.86-5.27,3.86l-69,4.35a26.93,26.93,0,0,1-5.46,0L5.27,117.59c-2.9,0-5.27-1.74-5.27-3.86V50.56C0,48.44,2.37,46.7,5.27,46.7Z"/><path class="cls-2" d="M76,113.65s31.48-11.54,68.41-2.3V41.81s-36.85-23.9-68.41,0Z"/><path class="cls-3" d="M76,111.37S97.83,93.5,127.79,96.94V26S97.73,14.73,76,39.54Z"/><path class="cls-4" d="M76,111.88s12.28-24.21,35.27-26.57V12.88S88,14.32,76,40Z"/><path class="cls-5" d="M76,113.65S78.63,83.1,94.65,75V1.06S78.18,15.19,76,41.81Z"/><path class="cls-2" d="M76,113.65s-31.48-11.54-68.41-2.3V41.81s36.85-23.9,68.41,0Z"/><path class="cls-3" d="M76,111.37S54.07,93.5,24.11,96.94V26S54.17,14.73,76,39.54Z"/><path class="cls-4" d="M76,111.88S63.67,87.67,40.68,85.31V12.88S64,14.32,76,40Z"/><path class="cls-6" d="M76,113.65S73.27,83.1,57.25,75V1.06S73.72,15.19,76,41.81Z"/></g></g></svg>