<svg xmlns="http://www.w3.org/2000/svg" xmlns:xlink="http://www.w3.org/1999/xlink" viewBox="0 0 232.54 74.71"><defs><style>.cls-1{font-size:25.26px;font-family:Dosis-ExtraBold, Dosis;font-weight:800;}.cls-1,.cls-2{fill:#414042;}.cls-2{font-size:10px;font-family:Montserrat-Regular, Montserrat;letter-spacing:0.18em;}.cls-3{fill:url(#linear-gradient);}.cls-4{fill:url(#linear-gradient-2);}.cls-5{fill:url(#linear-gradient-3);}.cls-6{fill:url(#linear-gradient-4);}.cls-7{fill:url(#linear-gradient-5);}.cls-8{fill:url(#linear-gradient-6);}</style><linearGradient id="linear-gradient" x1="26.48" y1="38.55" x2="55.04" y2="88.02" gradientUnits="userSpaceOnUse"><stop offset="0.49" stop-color="#8338ea"/><stop offset="1" stop-color="#c918a3"/></linearGradient><linearGradient id="linear-gradient-2" x1="29.23" y1="43.43" x2="51.77" y2="82.47" gradientUnits="userSpaceOnUse"><stop offset="0" stop-color="#c6d4de"/><stop offset="1" stop-color="#a0b3c0"/></linearGradient><linearGradient id="linear-gradient-3" x1="26.48" y1="-12.39" x2="55.04" y2="37.07" gradientUnits="userSpaceOnUse"><stop offset="0" stop-color="#ff006c"/><stop offset="0.6" stop-color="#ff60c5"/><stop offset="1" stop-color="#ff006c"/></linearGradient><linearGradient id="linear-gradient-4" x1="29.23" y1="-7.52" x2="51.77" y2="31.53" xlink:href="#linear-gradient-2"/><linearGradient id="linear-gradient-5" x1="41.43" y1="12.16" x2="69.98" y2="61.63" gradientUnits="userSpaceOnUse"><stop offset="0" stop-color="#ffbf0b"/><stop offset="1" stop-color="#fc7808"/></linearGradient><linearGradient id="linear-gradient-6" x1="44.69" y1="17.71" x2="67.23" y2="56.76" xlink:href="#linear-gradient-2"/></defs><title>Recurso 1</title><g id="Capa_2" data-name="Capa 2"><g id="OBJECTS"><text class="cls-1" transform="translate(100.96 37.35)">MAGIC BOOK</text><text class="cls-2" transform="translate(146.84 53.98)">SHOP</text><path class="cls-3" d="M78.09,74.71H6.84A6.85,6.85,0,0,1,0,67.87V57.79A6.85,6.85,0,0,1,6.84,51H78.09v3.42H6.84a3.42,3.42,0,0,0-3.42,3.42V67.87a3.43,3.43,0,0,0,3.42,3.42H78.09Z"/><path class="cls-4" d="M8.51,67.57l65.82-.82V65.23l-51.88-.82,51.88-.82V62.07L8.51,61.25l65.82-.83V58.9L16,58.08l58.32-.82v-1H7.58A1.81,1.81,0,0,0,5.77,58v9.63a1.81,1.81,0,0,0,1.81,1.81H74.33v-1Z"/><path class="cls-5" d="M78.09,23.76H6.84A6.85,6.85,0,0,1,0,16.92V6.84A6.85,6.85,0,0,1,6.84,0H78.09V3.42H6.84A3.43,3.43,0,0,0,3.42,6.84V16.92a3.42,3.42,0,0,0,3.42,3.42H78.09Z"/><path class="cls-6" d="M8.51,16.63l65.82-.83V14.28l-51.88-.82,51.88-.81V11.12L8.51,10.3l65.82-.83V8L16,7.14l58.32-.82V5.26H7.58A1.81,1.81,0,0,0,5.77,7.07v9.62A1.81,1.81,0,0,0,7.58,18.5H74.33V17.45Z"/><path class="cls-7" d="M18.37,49.23H89.62a6.84,6.84,0,0,0,6.84-6.84V32.32a6.85,6.85,0,0,0-6.84-6.85H18.37v3.42H89.62A3.43,3.43,0,0,1,93,32.32V42.39a3.42,3.42,0,0,1-3.42,3.42H18.37Z"/><path class="cls-8" d="M88,42.1l-65.81-.83V39.75L74,38.94l-51.87-.82V36.6L88,35.77,22.14,35V33.43l58.31-.82-58.31-.82V30.73H88.88a1.81,1.81,0,0,1,1.81,1.81v9.63A1.81,1.81,0,0,1,88.88,44H22.14V42.92Z"/></g></g></svg>